<svg width="92" height="51" viewBox="0 0 92 51" fill="none" xmlns="http://www.w3.org/2000/svg">
<g id="Group">
<g id="Group_2">
<path id="Vector" d="M10.4269 44.6139C5.72517 40.9935 1.97629 35.8075 0.934438 29.8921C-0.0272709 24.466 1.70915 18.6217 5.74298 14.7967C6.69579 13.8983 7.76435 13.1333 8.93087 12.5373C10.32 11.8346 12.0119 11.2119 13.588 11.4521C15.0395 11.6833 16.206 12.653 17.141 13.7204C18.1562 14.8768 19.0288 16.1933 19.848 17.5009C21.4331 20.0183 22.7065 23.1228 21.3529 26.0226C20.8187 27.1701 19.9015 28.202 18.6548 28.5934C17.2123 29.0471 15.6806 28.5311 14.5765 27.5615C11.9852 25.2932 12.2612 21.4949 13.1695 18.4972C13.9709 15.8553 15.3779 13.4002 17.2123 11.3365C20.9255 7.14675 26.5444 4.38029 32.2256 4.9318C35.0217 5.20756 37.8801 6.39954 39.5987 8.69454C41.0947 10.6871 41.6379 13.3023 41.2995 15.7485C40.9433 18.3015 39.5898 20.7744 37.3458 22.1265C35.8053 23.0516 34.1312 23.016 32.6174 22.0553C31.4064 21.2903 30.4803 20.1073 29.8926 18.8085C28.7617 16.3267 28.8418 13.3646 29.8391 10.8561C30.9077 8.16081 33.1428 6.04373 35.6539 4.66495C38.3253 3.19722 41.5132 2.36995 44.5675 2.48558C47.7465 2.60122 50.507 4.06896 52.2078 6.77314C53.8106 9.31721 54.3004 12.3505 54.0332 15.3127C53.873 17.1006 53.4544 18.8619 52.9202 20.5787C52.653 21.4415 52.3592 22.2955 52.0475 23.1406C51.7893 23.8433 51.5755 24.6439 51.1214 25.2577C49.8302 26.9922 48.0404 24.5282 47.4438 23.4341C46.7314 22.1443 46.2683 20.7121 46.0457 19.2533C45.6005 16.3089 46.117 13.2045 47.4527 10.5448C50.1152 5.21645 55.8142 1.94296 61.5755 1.1157C64.7545 0.662033 68.165 0.866644 71.0145 2.4678C73.2229 3.71315 74.9771 5.65231 76.1347 7.89394C77.2834 10.1089 77.8355 12.6441 77.6129 15.1437C77.3814 17.75 76.1882 20.9523 73.6058 22.0553C70.5693 23.3629 67.4883 20.9434 66.5266 18.1414C65.5559 15.3038 66.0902 12.1103 67.4259 9.47731C68.7616 6.8265 70.8899 4.58489 73.3654 2.96594C76.0724 1.19577 79.4206 0.0304733 82.653 0.902216C85.3867 1.64053 87.6574 3.65087 89.1089 6.03482C90.8364 8.87243 91.3707 12.2705 91.2906 15.5528C91.1303 21.9575 89.1267 28.4511 86.1882 34.1085C84.7189 36.9372 82.9557 39.6325 80.9344 42.1054C78.9308 44.5605 76.669 46.9445 73.8729 48.5012C71.068 50.0579 67.6485 50.6538 64.6209 49.3907C64.2559 49.2395 64.1045 49.8266 64.4607 49.9778C67.6931 51.321 71.3796 50.636 74.3449 48.937C77.3992 47.1847 79.8569 44.4894 82.0029 41.7407C86.2683 36.279 89.3315 29.8921 90.872 23.1406C92.368 16.5847 92.8667 8.63226 87.8444 3.4018C85.7162 1.19576 82.7955 -0.191901 79.6966 0.0215867C76.3217 0.252865 73.1517 2.0497 70.6851 4.28243C68.3698 6.37284 66.5355 9.10371 65.7875 12.1548C65.0484 15.1703 65.36 18.7907 67.6129 21.1213C69.7055 23.2829 73.1428 23.6832 75.4135 21.575C77.4704 19.6625 78.3075 16.5758 78.2719 13.836C78.1917 8.45436 74.7812 3.09935 69.6699 1.16907C66.3752 -0.0762815 62.6085 0.110529 59.2425 0.955586C56.1971 1.72948 53.2942 3.15273 50.9077 5.20756C46.0724 9.36168 43.8106 16.3979 46.304 22.4378C46.856 23.781 47.6397 25.3199 48.9308 26.0849C49.5186 26.4318 50.2309 26.5653 50.8632 26.2628C51.4865 25.9604 51.8338 25.3466 52.092 24.7328C53.5346 21.3081 54.71 17.5187 54.7278 13.7738C54.7456 10.7494 53.8551 7.66267 51.905 5.29651C49.7323 2.67239 46.4731 1.6761 43.1428 1.88959C37.0965 2.27208 30.4268 5.77687 28.8329 12.0303C28.1294 14.7878 28.4411 17.9101 30.0529 20.3029C30.881 21.5394 32.0564 22.6068 33.4634 23.1317C35.0929 23.7365 36.767 23.3096 38.1472 22.3222C42.5284 19.191 43.2764 12.3416 39.9905 8.16972C36.0635 3.17054 28.45 3.53524 23.2407 6.01703C17.8356 8.59668 13.588 13.7115 12.279 19.5735C11.5667 22.758 11.8872 26.503 14.8258 28.4778C15.9923 29.2605 17.4794 29.5897 18.8507 29.1627C20.0974 28.7713 21.0858 27.8284 21.7091 26.6987C23.2942 23.8611 22.4304 20.6588 20.8988 17.9991C20.0618 16.5313 19.0822 15.1081 18.0315 13.7915C17.1232 12.6529 16.0279 11.5855 14.6388 11.0696C13.0448 10.4825 11.3173 10.8739 9.78572 11.4788C8.49454 11.9947 7.2924 12.7063 6.20603 13.5781C3.93533 15.4016 2.25234 17.9012 1.21939 20.6054C-1.0335 26.5475 0.311108 33.0589 3.73052 38.2715C5.45803 40.9046 7.64859 43.1906 10.1419 45.1031C10.4358 45.37 10.7385 44.8452 10.4269 44.6139Z" fill="#C60000" fill-opacity="0.5"/>
</g>
</g>
</svg>
